<svg width="162" height="123" viewBox="0 0 162 123" fill="none" xmlns="http://www.w3.org/2000/svg">
<path fill-rule="evenodd" clip-rule="evenodd" d="M81 0C82.6525 0 84.2373 0.539955 85.4058 1.50108C86.5743 2.4622 87.2308 3.76577 87.2308 5.125V117.875C87.2308 119.234 86.5743 120.538 85.4058 121.499C84.2373 122.46 82.6525 123 81 123C79.3475 123 77.7627 122.46 76.5942 121.499C75.4257 120.538 74.7692 119.234 74.7692 117.875V5.125C74.7692 3.76577 75.4257 2.4622 76.5942 1.50108C77.7627 0.539955 79.3475 0 81 0V0ZM56.0769 20.5C57.7294 20.5 59.3142 21.04 60.4827 22.0011C61.6512 22.9622 62.3077 24.2658 62.3077 25.625V97.375C62.3077 98.7342 61.6512 100.038 60.4827 100.999C59.3142 101.96 57.7294 102.5 56.0769 102.5C54.4244 102.5 52.8396 101.96 51.6711 100.999C50.5026 100.038 49.8462 98.7342 49.8462 97.375V25.625C49.8462 24.2658 50.5026 22.9622 51.6711 22.0011C52.8396 21.04 54.4244 20.5 56.0769 20.5V20.5ZM105.923 20.5C107.576 20.5 109.16 21.04 110.329 22.0011C111.497 22.9622 112.154 24.2658 112.154 25.625V97.375C112.154 98.7342 111.497 100.038 110.329 100.999C109.16 101.96 107.576 102.5 105.923 102.5C104.271 102.5 102.686 101.96 101.517 100.999C100.349 100.038 99.6923 98.7342 99.6923 97.375V25.625C99.6923 24.2658 100.349 22.9622 101.517 22.0011C102.686 21.04 104.271 20.5 105.923 20.5ZM31.1538 35.875C32.8063 35.875 34.3912 36.415 35.5597 37.3761C36.7282 38.3372 37.3846 39.6408 37.3846 41V82C37.3846 83.3592 36.7282 84.6628 35.5597 85.6239C34.3912 86.5851 32.8063 87.125 31.1538 87.125C29.5013 87.125 27.9165 86.5851 26.748 85.6239C25.5795 84.6628 24.9231 83.3592 24.9231 82V41C24.9231 39.6408 25.5795 38.3372 26.748 37.3761C27.9165 36.415 29.5013 35.875 31.1538 35.875V35.875ZM130.846 35.875C132.499 35.875 134.083 36.415 135.252 37.3761C136.42 38.3372 137.077 39.6408 137.077 41V82C137.077 83.3592 136.42 84.6628 135.252 85.6239C134.083 86.5851 132.499 87.125 130.846 87.125C129.194 87.125 127.609 86.5851 126.44 85.6239C125.272 84.6628 124.615 83.3592 124.615 82V41C124.615 39.6408 125.272 38.3372 126.44 37.3761C127.609 36.415 129.194 35.875 130.846 35.875ZM6.23077 46.125C7.88327 46.125 9.46809 46.665 10.6366 47.6261C11.8051 48.5872 12.4615 49.8908 12.4615 51.25V71.75C12.4615 73.1092 11.8051 74.4128 10.6366 75.3739C9.46809 76.3351 7.88327 76.875 6.23077 76.875C4.57827 76.875 2.99345 76.3351 1.82495 75.3739C0.656455 74.4128 0 73.1092 0 71.75V51.25C0 49.8908 0.656455 48.5872 1.82495 47.6261C2.99345 46.665 4.57827 46.125 6.23077 46.125ZM155.769 46.125C157.422 46.125 159.007 46.665 160.175 47.6261C161.344 48.5872 162 49.8908 162 51.25V71.75C162 73.1092 161.344 74.4128 160.175 75.3739C159.007 76.3351 157.422 76.875 155.769 76.875C154.117 76.875 152.532 76.3351 151.363 75.3739C150.195 74.4128 149.538 73.1092 149.538 71.75V51.25C149.538 49.8908 150.195 48.5872 151.363 47.6261C152.532 46.665 154.117 46.125 155.769 46.125Z" fill="white"/>
</svg>
